<svg xmlns="http://www.w3.org/2000/svg" version="1.1" viewBox="-5.0 -10.0 110.0 135.0">
 <path d="m64.496 38.062c-0.21875 1.4922-1.3477 2.5547-2.5469 2.4375-1.1211 4.9102-5.1484 8.5508-9.957 8.5508-4.8086 0-8.8359-3.6406-9.957-8.5508-1.1953 0.11719-2.3242-0.94531-2.5469-2.4375-0.22656-1.5273 0.58594-2.9141 1.8164-3.0938 0.0625-0.007812 0.125 0 0.19141-0.003906v-4.543h20.996v4.543c0.0625 0.003906 0.125-0.003906 0.19141 0.003906 1.2266 0.17969 2.0391 1.5664 1.8125 3.0938zm4.8984-22.055c0-3.9258-3.1836-7.1094-7.1094-7.1094-1.3516 0-2.6094 0.38281-3.6875 1.0391-0.84375-2.8516-3.4805-4.9375-6.6094-4.9375-3.1289 0-5.7656 2.082-6.6094 4.9375-1.0742-0.65625-2.3359-1.0391-3.6875-1.0391-3.9258 0-7.1094 3.1836-7.1094 7.1094 0 3.8555 3.0742 6.9883 6.9023 7.0977v5.2031h4.6953l-1.2422-3.082c-0.10156-0.25781 0.019531-0.54687 0.27734-0.64844 0.25781-0.10156 0.54688 0.019531 0.65234 0.27734l1.3906 3.4531h4.2227v-5.8672c0-0.27734 0.22266-0.5 0.5-0.5 0.27734 0 0.5 0.22266 0.5 0.5v5.8672h4.2227l1.3906-3.4531c0.10156-0.25781 0.39453-0.37891 0.65234-0.27734 0.25781 0.10156 0.37891 0.39453 0.27734 0.64844l-1.2422 3.082h4.6953v-5.2031c3.8438-0.10938 6.918-3.2422 6.918-7.0977zm-10.246 43.234 0.11719-0.10156c-0.125-1.1367-0.55078-3.2812-1.9883-4.8789-1.4961-1.6602-3.7266-2.2891-4.7773-2.5039 0.10547 1.0664 0.50391 3.3477 2 5.0078 1.4414 1.5977 3.5312 2.2383 4.6484 2.4766zm-3.9297 7.4141v-0.85156c0-1.7812-1.4492-3.2305-3.2305-3.2305s-3.2305 1.4492-3.2305 3.2305v0.85156c1.0508-0.14062 2.1289-0.21094 3.2305-0.21094 1.1016 0 2.1836 0.070313 3.2305 0.21094zm-10.387-7.4102c1.1172-0.24219 3.207-0.88281 4.6484-2.4766 1.4961-1.6602 1.8945-3.9414 2-5.0078-1.0508 0.21484-3.2773 0.84375-4.7773 2.5039-1.4414 1.5938-1.8633 3.7422-1.9883 4.8789zm16.328 11.883h3.0703c-2.0898-1.6094-4.8789-2.7617-8.0117-3.3086-0.32812-0.058593-0.66016-0.12109-1-0.14844-1.0508-0.14844-2.1289-0.21875-3.2305-0.21875-1.1016 0-2.1797 0.070313-3.2305 0.21875-0.33984 0.03125-0.67187 0.089844-1 0.14844-3.1289 0.55078-5.9219 1.6992-8.0117 3.3086zm12.887 18.48c-2.4766 0.57422-4.8516-0.5-6.1367-2.4062v5.7969c0 1.1055-0.89453 2-2 2h-27.836c-1.1055 0-2-0.89453-2-2v-5.7969c-1.2812 1.9102-3.6602 2.9805-6.1367 2.4062-2.875-0.66406-4.7031-3.5156-4.3945-6.4492l2.0469-19.461c0.75-7.125 6.7578-12.535 13.922-12.535h8.3477c-1.2148 0.40625-2.7227 1.1367-3.8945 2.4297-1.6289 1.8047-2.1016 4.1797-2.2422 5.4375-0.039062 0.35156 0.09375 0.69922 0.35547 0.93359 0.20312 0.18359 0.46484 0.28125 0.73438 0.28125 0.078125 0 0.15234-0.007813 0.23047-0.023438 1.2344-0.26562 3.5508-0.98047 5.1797-2.7891 0.89062-0.98828 1.4336-2.1406 1.7695-3.1875 0.33594 1.0469 0.875 2.1992 1.7656 3.1875 1.6289 1.8047 3.9453 2.5234 5.1797 2.7891 0.078125 0.015625 0.15234 0.023438 0.23047 0.023438 0.26953 0 0.53125-0.097656 0.73438-0.28125 0.26172-0.23438 0.39453-0.58594 0.35547-0.93359-0.13672-1.2578-0.61328-3.6328-2.2422-5.4375-1.1641-1.293-2.668-2.0195-3.8789-2.4297h8.332c7.1641 0 13.172 5.4102 13.922 12.535l2.0469 19.461c0.3125 2.9336-1.5195 5.7852-4.3906 6.4492zm-3.7852-16.242c0-1.2383-1.0117-2.2383-2.25-2.2383h-2.2227c-2.3281-2.1406-5.7188-3.6719-9.5703-4.3203v-1c0-2.332-1.8984-4.2305-4.2305-4.2305-2.3281 0-4.2305 1.8984-4.2305 4.2305v1c-3.8398 0.64844-7.2383 2.1797-9.5703 4.3203h-2.2188c-1.2383 0-2.2383 1-2.2383 2.2383 0 1.2422 1 2.2422 2.2383 2.2422h2.3789v12.258c0 2.4688 2.0117 4.4688 4.4805 4.4688h18.328c2.4609 0 4.4688-2 4.4688-4.4688l0.003906-12.262h2.3789c1.2422 0 2.2539-1 2.2539-2.2383zm-30.91 14.5c0 1.9102 1.5586 3.4688 3.4805 3.4688h18.328c1.9102 0 3.4688-1.5586 3.4688-3.4688v-12.262h-25.277zm28.66-15.738h-32.039c-0.69141 0-1.2383 0.55859-1.2383 1.2383 0 0.69141 0.55078 1.2422 1.2383 1.2422h2.4883l1.0391-0.003906h28.508c0.69141 0 1.25-0.55078 1.25-1.2422 0.003907-0.67578-0.55859-1.2344-1.2461-1.2344z"/>
<text x="0.0" y="117.5" font-size="5.0" font-weight="bold" font-family="Arbeit Regular, Helvetica, Arial-Unicode, Arial, Sans-serif" fill="#000000">Created by InYoung Park</text><text x="0.0" y="122.5" font-size="5.0" font-weight="bold" font-family="Arbeit Regular, Helvetica, Arial-Unicode, Arial, Sans-serif" fill="#000000">from Noun Project</text></svg>